<svg width="44" height="17" viewBox="0 0 44 17" fill="currentColor" xmlns="http://www.w3.org/2000/svg">
<path d="M4.81201 13.1587C2.146 13.1587 0.476562 11.375 0.476562 8.41699C0.476562 5.46533 2.15869 3.68164 4.81201 3.68164C7.01465 3.68164 8.69043 5.07812 8.83643 7.12842H6.97022C6.79248 6.00488 5.9292 5.26855 4.81201 5.26855C3.36475 5.26855 2.43164 6.48096 2.43164 8.41064C2.43164 10.3657 3.35205 11.5718 4.81836 11.5718C5.95459 11.5718 6.77344 10.9053 6.97656 9.81982H8.84278C8.62695 11.8638 7.05908 13.1587 4.81201 13.1587ZM9.91553 13V3.84033H11.7691V13H9.91553ZM15.6475 11.7686C16.4536 11.7686 17.1201 11.2417 17.1201 10.5054V10.0103L15.6856 10.0991C14.9937 10.1499 14.6001 10.4609 14.6001 10.9434C14.6001 11.4512 15.0191 11.7686 15.6475 11.7686ZM15.0381 13.1079C13.7432 13.1079 12.7593 12.27 12.7593 11.0449C12.7593 9.80713 13.7114 9.08984 15.4063 8.98828L17.1201 8.88672V8.43604C17.1201 7.80127 16.6758 7.43311 15.9776 7.43311C15.2857 7.43311 14.8477 7.77588 14.7588 8.27734H13.064C13.1338 6.95703 14.2573 6.04932 16.0601 6.04932C17.8057 6.04932 18.9419 6.95068 18.9419 8.32178V13H17.1519V11.959H17.1138C16.7329 12.6826 15.8887 13.1079 15.0381 13.1079ZM20.0274 8.19482C20.0274 6.8999 21.1509 6.04932 22.8965 6.04932C24.604 6.04932 25.7149 6.9126 25.7402 8.23291H24.0327C23.9946 7.68701 23.5567 7.35059 22.8711 7.35059C22.23 7.35059 21.811 7.64258 21.811 8.08057C21.811 8.41699 22.103 8.64551 22.6997 8.78516L24.001 9.06445C25.3657 9.36914 25.918 9.90869 25.918 10.9243C25.918 12.2637 24.6865 13.146 22.8901 13.146C21.0747 13.146 19.9575 12.27 19.856 10.9434H21.6651C21.7539 11.5146 22.2046 11.8447 22.9409 11.8447C23.6455 11.8447 24.0708 11.5654 24.0708 11.1211C24.0708 10.7783 23.8423 10.5879 23.2329 10.4419L21.9761 10.1626C20.6875 9.87061 20.0274 9.19775 20.0274 8.19482ZM26.7305 8.19482C26.7305 6.8999 27.854 6.04932 29.5996 6.04932C31.3071 6.04932 32.418 6.9126 32.4434 8.23291H30.7359C30.6978 7.68701 30.2598 7.35059 29.5742 7.35059C28.9331 7.35059 28.5142 7.64258 28.5142 8.08057C28.5142 8.41699 28.8062 8.64551 29.4028 8.78516L30.7041 9.06445C32.0689 9.36914 32.6211 9.90869 32.6211 10.9243C32.6211 12.2637 31.3897 13.146 29.5933 13.146C27.7778 13.146 26.6607 12.27 26.5591 10.9434H28.3682C28.457 11.5146 28.9077 11.8447 29.6441 11.8447C30.3486 11.8447 30.7739 11.5654 30.7739 11.1211C30.7739 10.7783 30.5454 10.5879 29.936 10.4419L28.6792 10.1626C27.3906 9.87061 26.7305 9.19775 26.7305 8.19482ZM33.5796 13V6.19531H35.4331V13H33.5796ZM34.5064 5.44629C33.9478 5.44629 33.5161 5.021 33.5161 4.48779C33.5161 3.94824 33.9478 3.5293 34.5064 3.5293C35.065 3.5293 35.4966 3.94824 35.4966 4.48779C35.4966 5.021 35.065 5.44629 34.5064 5.44629ZM42.8535 8.72803H41.1333C41.0254 8.01074 40.5493 7.50293 39.7876 7.50293C38.8735 7.50293 38.3023 8.27734 38.3023 9.59131C38.3023 10.9307 38.8735 11.6924 39.794 11.6924C40.5366 11.6924 41.0191 11.248 41.1333 10.5054H42.8599C42.7647 12.1113 41.565 13.146 39.7749 13.146C37.7246 13.146 36.4234 11.813 36.4234 9.59131C36.4234 7.40771 37.7246 6.04932 39.7622 6.04932C41.603 6.04932 42.771 7.18555 42.8535 8.72803Z" />
</svg>
