<svg width="29" height="17" viewBox="0 0 29 17" fill="currentColor" xmlns="http://www.w3.org/2000/svg">
<path d="M4.88764 13.247C4.54964 13.247 4.17264 13.1907 3.75664 13.078C3.34064 12.974 2.92031 12.805 2.49564 12.571C2.07964 12.337 1.69397 12.0337 1.33864 11.661C0.991974 11.2883 0.710308 10.842 0.493641 10.322C0.285641 9.80202 0.181641 9.1997 0.181641 8.51503C0.181641 7.85636 0.285641 7.2757 0.493641 6.77303C0.710308 6.27036 0.991974 5.83703 1.33864 5.47303C1.68531 5.10903 2.06664 4.81436 2.48264 4.58903C2.90731 4.3637 3.33197 4.19903 3.75664 4.09503C4.18131 3.98236 4.57131 3.92603 4.92664 3.92603C5.36864 3.92603 5.75864 3.98236 6.09664 4.09503C6.43464 4.19903 6.70764 4.3117 6.91564 4.43303C7.13231 4.5457 7.26664 4.61936 7.31864 4.65403C7.49197 4.7667 7.65231 4.89236 7.79964 5.03103C7.95564 5.16103 8.03364 5.3387 8.03364 5.56403C8.03364 5.6767 8.00764 5.7937 7.95564 5.91503C7.91231 6.03636 7.84297 6.16203 7.74764 6.29203C7.57431 6.5347 7.40964 6.71236 7.25364 6.82503C7.10631 6.9377 6.95897 6.99403 6.81164 6.99403C6.69897 6.99403 6.59064 6.96803 6.48664 6.91603C6.38264 6.86403 6.25697 6.79036 6.10964 6.69503C6.04897 6.6517 5.97097 6.60403 5.87564 6.55203C5.78031 6.49136 5.65031 6.43936 5.48564 6.39603C5.32097 6.34403 5.10431 6.31803 4.83564 6.31803C4.61031 6.31803 4.36331 6.36136 4.09464 6.44803C3.83464 6.52603 3.58764 6.65603 3.35364 6.83803C3.11964 7.01136 2.92897 7.24536 2.78164 7.54003C2.63431 7.82603 2.56064 8.1727 2.56064 8.58003C2.56064 8.99603 2.63431 9.34703 2.78164 9.63303C2.93764 9.91903 3.13264 10.153 3.36664 10.335C3.60064 10.5083 3.84764 10.6383 4.10764 10.725C4.37631 10.803 4.61897 10.842 4.83564 10.842C5.06097 10.842 5.25164 10.8247 5.40764 10.79C5.56364 10.7467 5.70231 10.6903 5.82364 10.621C5.95364 10.5517 6.07064 10.4823 6.17464 10.413C6.26997 10.3437 6.37397 10.283 6.48664 10.231C6.59931 10.179 6.71197 10.153 6.82464 10.153C6.97197 10.153 7.11931 10.2137 7.26664 10.335C7.41397 10.4563 7.56997 10.6427 7.73464 10.894C7.82997 11.0413 7.89931 11.18 7.94264 11.31C7.99464 11.4313 8.02064 11.544 8.02064 11.648C8.02064 11.8647 7.94264 12.038 7.78664 12.168C7.63931 12.298 7.47897 12.415 7.30564 12.519C7.24497 12.5537 7.11497 12.6317 6.91564 12.753C6.71631 12.8743 6.44764 12.987 6.10964 13.091C5.77164 13.195 5.36431 13.247 4.88764 13.247ZM11.5418 13.091C11.1258 13.091 10.7358 13.0087 10.3718 12.844C10.0164 12.6793 9.70448 12.4497 9.43581 12.155C9.16715 11.8517 8.95915 11.5007 8.81181 11.102C8.66448 10.7033 8.59081 10.27 8.59081 9.80203V7.68303C8.59081 7.4837 8.60815 7.29736 8.64281 7.12403C8.67748 6.94203 8.77715 6.7947 8.94181 6.68203C9.10648 6.5607 9.38381 6.50003 9.77381 6.50003C10.1724 6.50003 10.4498 6.5607 10.6058 6.68203C10.7704 6.7947 10.8701 6.94203 10.9048 7.12403C10.9394 7.30603 10.9568 7.4967 10.9568 7.69603V9.80203C10.9568 10.0013 10.9914 10.1703 11.0608 10.309C11.1388 10.4477 11.2471 10.556 11.3858 10.634C11.5331 10.7033 11.7021 10.738 11.8928 10.738C12.0834 10.738 12.2481 10.699 12.3868 10.621C12.5254 10.543 12.6338 10.4347 12.7118 10.296C12.7898 10.1573 12.8288 9.9927 12.8288 9.80203V7.67003C12.8288 7.4707 12.8461 7.28436 12.8808 7.11103C12.9154 6.92903 13.0151 6.7817 13.1798 6.66903C13.3444 6.55636 13.6218 6.50003 14.0118 6.50003C14.4104 6.50003 14.6878 6.5607 14.8438 6.68203C15.0084 6.7947 15.1081 6.94203 15.1428 7.12403C15.1774 7.30603 15.1948 7.49236 15.1948 7.68303V11.96C15.1948 12.1507 15.1774 12.3327 15.1428 12.506C15.1081 12.6793 15.0084 12.8223 14.8438 12.935C14.6791 13.0477 14.4018 13.104 14.0118 13.104C13.7258 13.104 13.5004 13.0693 13.3358 13C13.1798 12.9393 13.0671 12.8613 12.9978 12.766C12.9284 12.662 12.8851 12.5623 12.8678 12.467C12.8591 12.363 12.8548 12.2763 12.8548 12.207L13.0758 12.272C13.0758 12.272 13.0411 12.3153 12.9718 12.402C12.9024 12.48 12.7984 12.5753 12.6598 12.688C12.5298 12.792 12.3694 12.8873 12.1788 12.974C11.9968 13.052 11.7844 13.091 11.5418 13.091ZM19.5154 13.117C19.0561 13.117 18.6574 13.065 18.3194 12.961C17.9814 12.857 17.6998 12.6967 17.4744 12.48C17.2578 12.2633 17.0931 11.9903 16.9804 11.661C16.8764 11.3317 16.8244 10.946 16.8244 10.504V5.46003C16.8244 5.2607 16.8418 5.0787 16.8764 4.91403C16.9111 4.7407 17.0108 4.60203 17.1754 4.49803C17.3401 4.38536 17.6174 4.32903 18.0074 4.32903C18.3888 4.32903 18.6618 4.3897 18.8264 4.51103C18.9911 4.6237 19.0908 4.77103 19.1254 4.95303C19.1601 5.13503 19.1774 5.32136 19.1774 5.51203V10.387C19.1774 10.4823 19.1818 10.5647 19.1904 10.634C19.2078 10.6947 19.2294 10.7423 19.2554 10.777C19.2814 10.8117 19.3161 10.8377 19.3594 10.855C19.4028 10.8723 19.4591 10.881 19.5284 10.881C19.7538 10.881 19.9531 10.8983 20.1264 10.933C20.3084 10.9677 20.4471 11.0587 20.5424 11.206C20.6464 11.3533 20.6984 11.6003 20.6984 11.947C20.6984 12.337 20.6378 12.6143 20.5164 12.779C20.3951 12.9437 20.2434 13.039 20.0614 13.065C19.8794 13.0997 19.6974 13.117 19.5154 13.117ZM16.5514 6.59103H18.0724L19.8664 6.52603C20.0571 6.52603 20.2391 6.54336 20.4124 6.57803C20.5944 6.6127 20.7418 6.71236 20.8544 6.87703C20.9758 7.0417 21.0364 7.32336 21.0364 7.72203C21.0364 8.08603 20.9758 8.35036 20.8544 8.51503C20.7418 8.6797 20.5944 8.78369 20.4124 8.82702C20.2391 8.87035 20.0528 8.89203 19.8534 8.89203L18.2024 8.85302H16.4994C16.2048 8.83569 16.0011 8.74036 15.8884 8.56703C15.7758 8.3937 15.7194 8.1077 15.7194 7.70903C15.7194 7.33636 15.7888 7.05903 15.9274 6.87703C16.0661 6.68636 16.2741 6.59103 16.5514 6.59103ZM24.9067 13.26C24.2567 13.26 23.7064 13.156 23.2557 12.948C22.805 12.7313 22.441 12.454 22.1637 12.116C21.8864 11.7693 21.6827 11.3967 21.5527 10.998C21.4227 10.5993 21.3577 10.2137 21.3577 9.84102C21.3577 9.15635 21.5094 8.55403 21.8127 8.03403C22.116 7.51403 22.5364 7.1067 23.0737 6.81203C23.611 6.51736 24.2264 6.37003 24.9197 6.37003C25.457 6.37003 25.9164 6.4567 26.2977 6.63003C26.679 6.80336 26.9867 7.02436 27.2207 7.29303C27.4634 7.5617 27.641 7.8477 27.7537 8.15103C27.8664 8.45436 27.9227 8.73603 27.9227 8.99603C27.9227 9.49003 27.8014 9.86703 27.5587 10.127C27.316 10.387 27.004 10.517 26.6227 10.517H23.8537C23.8884 10.6557 23.9577 10.777 24.0617 10.881C24.1744 10.9763 24.313 11.0543 24.4777 11.115C24.6424 11.167 24.82 11.193 25.0107 11.193C25.2014 11.193 25.3704 11.1843 25.5177 11.167C25.665 11.141 25.7907 11.1107 25.8947 11.076C26.0074 11.0413 26.107 11.0067 26.1937 10.972C26.289 10.9373 26.3714 10.9113 26.4407 10.894C26.5187 10.868 26.5924 10.855 26.6617 10.855C26.8177 10.855 26.9607 10.907 27.0907 11.011C27.2207 11.115 27.3377 11.271 27.4417 11.479C27.5024 11.5917 27.5457 11.7 27.5717 11.804C27.5977 11.8993 27.6107 11.9903 27.6107 12.077C27.6107 12.337 27.5024 12.5537 27.2857 12.727C27.0777 12.9003 26.7744 13.0303 26.3757 13.117C25.977 13.2123 25.4874 13.26 24.9067 13.26ZM23.8537 9.29503H25.3097C25.431 9.29503 25.5177 9.26903 25.5697 9.21703C25.6304 9.16503 25.6607 9.08703 25.6607 8.98303C25.6607 8.87036 25.626 8.77502 25.5567 8.69702C25.496 8.61902 25.4094 8.5627 25.2967 8.52803C25.184 8.4847 25.0497 8.46303 24.8937 8.46303C24.6857 8.46303 24.5037 8.50636 24.3477 8.59303C24.1917 8.67103 24.0704 8.77503 23.9837 8.90503C23.9057 9.02636 23.8624 9.15636 23.8537 9.29503Z" />
</svg>
