<svg width="42" height="17" viewBox="0 0 42 17" fill="currentColor" xmlns="http://www.w3.org/2000/svg">
<path d="M0.857422 13V3.90002H6.57742V5.46002H2.57342V7.65702H6.26542V9.21702H2.57342V13H0.857422ZM10.3107 13.104C9.80809 13.104 9.36609 12.9913 8.98476 12.766C8.61209 12.532 8.32176 12.2113 8.11376 11.804C7.90576 11.3967 7.80176 10.9287 7.80176 10.4V6.55202H9.43976V10.27C9.43976 10.7553 9.55676 11.1193 9.79076 11.362C10.0334 11.6047 10.3757 11.726 10.8177 11.726C11.3204 11.726 11.7104 11.5613 11.9877 11.232C12.2651 10.894 12.4037 10.426 12.4037 9.82802V6.55202H14.0417V13H12.4297V12.155H12.1957C12.0917 12.3717 11.8967 12.584 11.6107 12.792C11.3247 13 10.8914 13.104 10.3107 13.104ZM18.3345 13C17.9098 13 17.5631 12.87 17.2945 12.61C17.0345 12.3413 16.9045 11.986 16.9045 11.544V7.90402H15.2925V6.55202H16.9045V4.55002H18.5425V6.55202H20.3105V7.90402H18.5425V11.258C18.5425 11.518 18.6638 11.648 18.9065 11.648H20.1545V13H18.3345ZM24.2502 13.104C23.7475 13.104 23.3055 12.9913 22.9242 12.766C22.5515 12.532 22.2612 12.2113 22.0532 11.804C21.8452 11.3967 21.7412 10.9287 21.7412 10.4V6.55202H23.3792V10.27C23.3792 10.7553 23.4962 11.1193 23.7302 11.362C23.9729 11.6047 24.3152 11.726 24.7572 11.726C25.2599 11.726 25.6499 11.5613 25.9272 11.232C26.2045 10.894 26.3432 10.426 26.3432 9.82802V6.55202H27.9812V13H26.3692V12.155H26.1352C26.0312 12.3717 25.8362 12.584 25.5502 12.792C25.2642 13 24.8309 13.104 24.2502 13.104ZM29.8039 13V6.55202H31.4159V7.28002H31.6499C31.7453 7.02002 31.9013 6.82935 32.1179 6.70802C32.3433 6.58669 32.6033 6.52602 32.8979 6.52602H33.6779V7.98202H32.8719C32.4559 7.98202 32.1136 8.09469 31.8449 8.32002C31.5763 8.53669 31.4419 8.87469 31.4419 9.33402V13H29.8039ZM37.6677 13.182C37.0264 13.182 36.4587 13.0477 35.9647 12.779C35.4794 12.5017 35.098 12.116 34.8207 11.622C34.552 11.1193 34.4177 10.53 34.4177 9.85402V9.69802C34.4177 9.02202 34.552 8.43702 34.8207 7.94302C35.0894 7.44035 35.4664 7.05469 35.9517 6.78602C36.437 6.50869 37.0004 6.37002 37.6417 6.37002C38.2744 6.37002 38.8247 6.51302 39.2927 6.79902C39.7607 7.07635 40.1247 7.46635 40.3847 7.96902C40.6447 8.46302 40.7747 9.03935 40.7747 9.69802V10.257H36.0817C36.099 10.699 36.2637 11.0587 36.5757 11.336C36.8877 11.6133 37.269 11.752 37.7197 11.752C38.179 11.752 38.517 11.6523 38.7337 11.453C38.9504 11.2537 39.115 11.0327 39.2277 10.79L40.5667 11.492C40.4454 11.7173 40.2677 11.9643 40.0337 12.233C39.8084 12.493 39.505 12.7183 39.1237 12.909C38.7424 13.091 38.257 13.182 37.6677 13.182ZM36.0947 9.03502H39.1107C39.076 8.66235 38.9244 8.36335 38.6557 8.13802C38.3957 7.91269 38.0534 7.80002 37.6287 7.80002C37.1867 7.80002 36.8357 7.91269 36.5757 8.13802C36.3157 8.36335 36.1554 8.66235 36.0947 9.03502Z" />
</svg>
