<svg width="47" height="17" viewBox="0 0 47 17" fill="currentColor" xmlns="http://www.w3.org/2000/svg">
<path d="M0.884766 13V3.82201H2.34077L5.95477 9.45101H5.21377L8.81477 3.82201H10.2838V13H8.24277V7.26701L8.60677 7.35801L6.25377 11.024H4.90177L2.56177 7.35801L2.91277 7.26701V13H0.884766ZM14.904 13.143C14.254 13.143 13.6646 13 13.136 12.714C12.616 12.4193 12.2043 12.0207 11.901 11.518C11.5976 11.0153 11.446 10.452 11.446 9.82801C11.446 9.20401 11.5976 8.64501 11.901 8.15101C12.2043 7.65701 12.616 7.26701 13.136 6.98101C13.656 6.68634 14.2453 6.53901 14.904 6.53901C15.5626 6.53901 16.152 6.68201 16.672 6.96801C17.192 7.25401 17.6036 7.64834 17.907 8.15101C18.2103 8.64501 18.362 9.20401 18.362 9.82801C18.362 10.452 18.2103 11.0153 17.907 11.518C17.6036 12.0207 17.192 12.4193 16.672 12.714C16.152 13 15.5626 13.143 14.904 13.143ZM14.904 11.336C15.19 11.336 15.4413 11.2753 15.658 11.154C15.8746 11.024 16.0393 10.8463 16.152 10.621C16.2733 10.387 16.334 10.1227 16.334 9.82801C16.334 9.53334 16.2733 9.27768 16.152 9.06101C16.0306 8.83568 15.8616 8.66234 15.645 8.54101C15.437 8.41101 15.19 8.34601 14.904 8.34601C14.6266 8.34601 14.3796 8.41101 14.163 8.54101C13.9463 8.66234 13.7773 8.83568 13.656 9.06101C13.5346 9.28634 13.474 9.54634 13.474 9.84101C13.474 10.127 13.5346 10.387 13.656 10.621C13.7773 10.8463 13.9463 11.024 14.163 11.154C14.3796 11.2753 14.6266 11.336 14.904 11.336ZM22.0432 13.13C21.4452 13.13 20.9122 12.987 20.4442 12.701C19.9849 12.415 19.6209 12.025 19.3522 11.531C19.0922 11.037 18.9622 10.4737 18.9622 9.84101C18.9622 9.20834 19.0922 8.64501 19.3522 8.15101C19.6209 7.65701 19.9849 7.26701 20.4442 6.98101C20.9122 6.69501 21.4452 6.55201 22.0432 6.55201C22.4765 6.55201 22.8665 6.63434 23.2132 6.79901C23.5685 6.96368 23.8589 7.19334 24.0842 7.48801C24.3182 7.77401 24.4482 8.10334 24.4742 8.47601V11.141C24.4482 11.5137 24.3225 11.8517 24.0972 12.155C23.8719 12.4497 23.5815 12.688 23.2262 12.87C22.8709 13.0433 22.4765 13.13 22.0432 13.13ZM22.3942 11.336C22.6802 11.336 22.9272 11.2753 23.1352 11.154C23.3432 11.024 23.5079 10.8463 23.6292 10.621C23.7505 10.3957 23.8112 10.1357 23.8112 9.84101C23.8112 9.54634 23.7505 9.29068 23.6292 9.07401C23.5165 8.84868 23.3519 8.67101 23.1352 8.54101C22.9272 8.41101 22.6845 8.34601 22.4072 8.34601C22.1299 8.34601 21.8829 8.41101 21.6662 8.54101C21.4582 8.67101 21.2892 8.84868 21.1592 9.07401C21.0379 9.29934 20.9772 9.55501 20.9772 9.84101C20.9772 10.127 21.0379 10.3827 21.1592 10.608C21.2805 10.8333 21.4495 11.011 21.6662 11.141C21.8829 11.271 22.1255 11.336 22.3942 11.336ZM25.6832 13H23.7332V11.297L24.0322 9.76301L23.6942 8.22901V3.56201H25.6832V13ZM30.2037 13.143C29.519 13.143 28.908 13.0043 28.3707 12.727C27.842 12.441 27.426 12.0467 27.1227 11.544C26.8193 11.0413 26.6677 10.4737 26.6677 9.84101C26.6677 9.20834 26.815 8.64501 27.1097 8.15101C27.413 7.64834 27.8203 7.25401 28.3317 6.96801C28.843 6.68201 29.4193 6.53901 30.0607 6.53901C30.6847 6.53901 31.235 6.67334 31.7117 6.94201C32.1883 7.21068 32.561 7.58334 32.8297 8.06001C33.107 8.53668 33.2457 9.08268 33.2457 9.69801C33.2457 9.81068 33.237 9.93201 33.2197 10.062C33.211 10.1833 33.1893 10.3263 33.1547 10.491L27.7077 10.504V9.13901L32.3097 9.12601L31.4517 9.69801C31.443 9.33401 31.3867 9.03501 31.2827 8.80101C31.1787 8.55834 31.0227 8.37634 30.8147 8.25501C30.6153 8.12501 30.3683 8.06001 30.0737 8.06001C29.7617 8.06001 29.4887 8.13368 29.2547 8.28101C29.0293 8.41968 28.8517 8.61901 28.7217 8.87901C28.6003 9.13901 28.5397 9.45534 28.5397 9.82801C28.5397 10.2007 28.6047 10.5213 28.7347 10.79C28.8733 11.05 29.064 11.2537 29.3067 11.401C29.558 11.5397 29.8527 11.609 30.1907 11.609C30.5027 11.609 30.7843 11.557 31.0357 11.453C31.287 11.3403 31.508 11.1757 31.6987 10.959L32.7907 12.051C32.4787 12.415 32.1017 12.688 31.6597 12.87C31.2177 13.052 30.7323 13.143 30.2037 13.143ZM34.2057 13V6.68201H36.1947V13H34.2057ZM36.1947 9.52901L35.3627 8.87901C35.5274 8.14234 35.8047 7.57034 36.1947 7.16301C36.5847 6.75568 37.1264 6.55201 37.8197 6.55201C38.1231 6.55201 38.3874 6.59968 38.6127 6.69501C38.8467 6.78168 39.0504 6.92034 39.2237 7.11101L38.0407 8.60601C37.9541 8.51068 37.8457 8.43701 37.7157 8.38501C37.5857 8.33301 37.4384 8.30701 37.2737 8.30701C36.9444 8.30701 36.6801 8.41101 36.4807 8.61901C36.2901 8.81834 36.1947 9.12168 36.1947 9.52901ZM43.8885 13V9.39901C43.8885 9.06968 43.7845 8.80534 43.5765 8.60601C43.3772 8.39801 43.1215 8.29401 42.8095 8.29401C42.5928 8.29401 42.4022 8.34168 42.2375 8.43701C42.0728 8.52368 41.9428 8.65368 41.8475 8.82701C41.7522 8.99168 41.7045 9.18234 41.7045 9.39901L40.9375 9.02201C40.9375 8.52801 41.0458 8.09468 41.2625 7.72201C41.4792 7.34934 41.7782 7.06334 42.1595 6.86401C42.5495 6.65601 42.9872 6.55201 43.4725 6.55201C43.9405 6.55201 44.3522 6.66468 44.7075 6.89001C45.0715 7.10668 45.3575 7.39701 45.5655 7.76101C45.7735 8.12501 45.8775 8.52368 45.8775 8.95701V13H43.8885ZM39.7155 13V6.68201H41.7045V13H39.7155Z" />
</svg>
