<svg width="48" height="17" viewBox="0 0 48 17" fill="currentColor" xmlns="http://www.w3.org/2000/svg">
<path d="M0.962891 13V3.77002H3.14689L6.81289 10.14V3.77002H8.78889V13H6.57889L2.93889 6.85102V13H0.962891ZM13.6149 13.156C12.9043 13.156 12.2846 13.0087 11.7559 12.714C11.2359 12.4107 10.8286 11.986 10.5339 11.44C10.2479 10.894 10.1049 10.2527 10.1049 9.51602C10.1049 8.77935 10.2479 8.14235 10.5339 7.60502C10.8286 7.05902 11.2359 6.63435 11.7559 6.33102C12.2759 6.02769 12.8913 5.87602 13.6019 5.87602C14.2953 5.87602 14.8976 6.02769 15.4089 6.33102C15.9203 6.63435 16.3146 7.06769 16.5919 7.63102C16.8779 8.19435 17.0209 8.86602 17.0209 9.64602V10.036H12.1199C12.1459 10.5907 12.2933 11.0023 12.5619 11.271C12.8393 11.5397 13.2033 11.674 13.6539 11.674C13.9833 11.674 14.2563 11.6047 14.4729 11.466C14.6983 11.3273 14.8586 11.115 14.9539 10.829L16.9169 10.946C16.7349 11.6393 16.3493 12.181 15.7599 12.571C15.1706 12.961 14.4556 13.156 13.6149 13.156ZM12.1199 8.84002H15.0189C14.9929 8.32869 14.8499 7.94735 14.5899 7.69602C14.3386 7.44469 14.0093 7.31902 13.6019 7.31902C13.1946 7.31902 12.8566 7.45335 12.5879 7.72202C12.3279 7.98202 12.1719 8.35469 12.1199 8.84002ZM20.5141 13.156C19.7948 13.156 19.2314 12.9263 18.8241 12.467C18.4254 11.999 18.2261 11.349 18.2261 10.517V6.03202H20.1761V10.062C20.1761 10.5993 20.2584 10.9937 20.4231 11.245C20.5878 11.4877 20.8478 11.609 21.2031 11.609C21.6018 11.609 21.9094 11.4747 22.1261 11.206C22.3514 10.9287 22.4641 10.517 22.4641 9.97102V6.03202H24.4141V13H22.6331L22.5811 10.998L22.8281 11.05C22.7241 11.7433 22.4771 12.2677 22.0871 12.623C21.6971 12.9783 21.1728 13.156 20.5141 13.156ZM28.7293 13C28.0099 13 27.4813 12.8353 27.1433 12.506C26.8053 12.168 26.6363 11.635 26.6363 10.907V4.39402H28.5863V10.673C28.5863 11.011 28.6556 11.2407 28.7943 11.362C28.9416 11.4833 29.1583 11.544 29.4443 11.544H30.4193V13H28.7293ZM25.5183 7.48802V6.03202H30.4193V7.48802H25.5183ZM31.6958 13V6.03202H33.5418L33.6068 8.06002L33.4638 8.02102C33.5765 7.31902 33.7758 6.81202 34.0618 6.50002C34.3478 6.18802 34.7421 6.03202 35.2448 6.03202H35.8818V7.64402H35.2448C34.8808 7.64402 34.5818 7.69169 34.3478 7.78702C34.1138 7.88235 33.9361 8.03402 33.8148 8.24202C33.7021 8.45002 33.6458 8.73169 33.6458 9.08702V13H31.6958ZM38.8409 13.156C38.1216 13.156 37.5323 12.9913 37.0729 12.662C36.6223 12.324 36.3969 11.856 36.3969 11.258C36.3969 10.6427 36.5876 10.1703 36.9689 9.84102C37.3589 9.50302 37.9309 9.25602 38.6849 9.10002L40.9339 8.65802C40.9339 8.20735 40.8299 7.86935 40.6219 7.64402C40.4226 7.41002 40.1323 7.29302 39.7509 7.29302C39.3783 7.29302 39.0879 7.37969 38.8799 7.55302C38.6719 7.71769 38.5376 7.96469 38.4769 8.29402L36.5139 8.20302C36.6439 7.44035 36.9863 6.86402 37.5409 6.47402C38.1043 6.07535 38.8409 5.87602 39.7509 5.87602C40.7909 5.87602 41.5709 6.12302 42.0909 6.61702C42.6196 7.11102 42.8839 7.83469 42.8839 8.78802V11.167C42.8839 11.3663 42.9143 11.5007 42.9749 11.57C43.0443 11.6307 43.1439 11.661 43.2739 11.661H43.4689V13C43.4083 13.0173 43.3086 13.0347 43.1699 13.052C43.0399 13.0693 42.9099 13.078 42.7799 13.078C42.5026 13.078 42.2426 13.0303 41.9999 12.935C41.7659 12.8397 41.5753 12.6793 41.4279 12.454C41.2806 12.22 41.2069 11.8907 41.2069 11.466L41.3759 11.596C41.2893 11.908 41.1333 12.181 40.9079 12.415C40.6913 12.649 40.4053 12.831 40.0499 12.961C39.7033 13.091 39.3003 13.156 38.8409 13.156ZM39.3089 11.817C39.6296 11.817 39.9113 11.7563 40.1539 11.635C40.3966 11.505 40.5873 11.3187 40.7259 11.076C40.8646 10.8333 40.9339 10.5473 40.9339 10.218V9.88002L39.3479 10.218C39.0359 10.2787 38.7976 10.3827 38.6329 10.53C38.4769 10.6687 38.3989 10.8507 38.3989 11.076C38.3989 11.31 38.4769 11.492 38.6329 11.622C38.7889 11.752 39.0143 11.817 39.3089 11.817ZM46.1857 13C45.6137 13 45.1674 12.857 44.8467 12.571C44.5261 12.285 44.3657 11.8213 44.3657 11.18V3.77002H46.3157V10.972C46.3157 11.18 46.3634 11.3273 46.4587 11.414C46.5541 11.5007 46.6927 11.544 46.8747 11.544H47.3427V13H46.1857Z" />
</svg>
