<svg width="43" height="17" viewBox="0 0 43 17" fill="currentColor" xmlns="http://www.w3.org/2000/svg">
<path d="M8.74872 14.976C8.12472 15.0973 7.59172 15.171 7.14972 15.197C6.70772 15.2317 6.31339 15.2317 5.96672 15.197C5.62872 15.171 5.29939 15.1233 4.97872 15.054C4.65805 14.9933 4.30705 14.9283 3.92572 14.859C3.54439 14.7983 3.09372 14.7507 2.57372 14.716C2.06239 14.6813 1.43839 14.6813 0.701719 14.716V13.169C0.953052 13.1863 1.24772 13.1907 1.58572 13.182C1.93239 13.182 2.29639 13.1647 2.67772 13.13C3.05905 13.104 3.43605 13.065 3.80872 13.013C4.18139 12.961 4.52805 12.8917 4.84872 12.805C5.16939 12.7183 5.43805 12.6143 5.65472 12.493V12.324C4.97005 12.5233 4.35905 12.6187 3.82172 12.61C3.28439 12.5927 2.81205 12.4887 2.40472 12.298C2.00605 12.0987 1.67672 11.8257 1.41672 11.479C1.16539 11.1237 0.970386 10.712 0.831719 10.244C0.701719 9.76733 0.636719 9.24733 0.636719 8.684C0.636719 8.04267 0.723386 7.45333 0.896719 6.916C1.07005 6.37867 1.33005 5.91067 1.67672 5.512C2.02339 5.11333 2.44805 4.80133 2.95072 4.576C3.46205 4.35067 4.06005 4.238 4.74472 4.238C5.58539 4.238 6.30472 4.41567 6.90272 4.771C7.50939 5.12633 7.97305 5.63333 8.29372 6.292C8.61439 6.95067 8.77472 7.74367 8.77472 8.671C8.77472 9.477 8.66205 10.1573 8.43672 10.712C8.22005 11.258 7.91239 11.7087 7.51372 12.064C7.11505 12.4193 6.63405 12.701 6.07072 12.909C5.51605 13.117 4.90072 13.273 4.22472 13.377V13.559C4.68405 13.6023 5.10005 13.6413 5.47272 13.676C5.85405 13.7107 6.21805 13.728 6.56472 13.728C6.91139 13.7367 7.25805 13.7193 7.60472 13.676C7.96005 13.6327 8.34139 13.5633 8.74872 13.468V14.976ZM4.75772 11.7C5.23439 11.7 5.62872 11.5917 5.94072 11.375C6.26139 11.1497 6.49972 10.8247 6.65572 10.4C6.82039 9.96667 6.90272 9.42933 6.90272 8.788C6.90272 8.12933 6.81605 7.579 6.64272 7.137C6.47805 6.68633 6.23105 6.344 5.90172 6.11C5.57239 5.876 5.16505 5.759 4.67972 5.759C4.21172 5.759 3.81739 5.87167 3.49672 6.097C3.17605 6.32233 2.93339 6.656 2.76872 7.098C2.61272 7.54 2.53472 8.086 2.53472 8.736C2.53472 9.386 2.61705 9.932 2.78172 10.374C2.94639 10.816 3.19339 11.1497 3.52272 11.375C3.86072 11.5917 4.27239 11.7 4.75772 11.7ZM12.617 13.182C11.8197 13.182 11.2173 12.9133 10.81 12.376C10.4113 11.83 10.212 11.0023 10.212 9.893V6.175H12.084V9.659C12.084 10.3263 12.1837 10.8247 12.383 11.154C12.5823 11.4747 12.89 11.635 13.306 11.635C13.5487 11.635 13.7567 11.5743 13.93 11.453C14.112 11.3317 14.268 11.1627 14.398 10.946C14.528 10.7293 14.6277 10.478 14.697 10.192C14.7663 9.89733 14.8053 9.57667 14.814 9.23V6.175H16.673V10.218V13H15.165V10.881H14.918C14.7967 11.4183 14.6363 11.856 14.437 12.194C14.2377 12.532 13.9907 12.7833 13.696 12.948C13.4013 13.104 13.0417 13.182 12.617 13.182ZM18.4156 13V6.175H20.2746V13H18.4156ZM19.3516 5.148C18.9876 5.148 18.706 5.07 18.5066 4.914C18.316 4.758 18.2206 4.53267 18.2206 4.238C18.2206 3.94333 18.316 3.718 18.5066 3.562C18.706 3.406 18.9876 3.328 19.3516 3.328C19.7243 3.328 20.006 3.406 20.1966 3.562C20.396 3.718 20.4956 3.94333 20.4956 4.238C20.4956 4.53267 20.396 4.758 20.1966 4.914C20.006 5.07 19.7243 5.148 19.3516 5.148ZM22.0211 13V9.711V6.175H23.5681V8.489H23.8281C23.8888 7.917 24.0014 7.449 24.1661 7.085C24.3394 6.721 24.5778 6.45233 24.8811 6.279C25.1844 6.10567 25.5658 6.019 26.0251 6.019C26.1031 6.019 26.1854 6.02333 26.2721 6.032C26.3674 6.032 26.4758 6.045 26.5971 6.071L26.5191 8.047C26.3804 7.995 26.2331 7.956 26.0771 7.93C25.9298 7.904 25.7954 7.891 25.6741 7.891C25.3361 7.891 25.0414 7.969 24.7901 8.125C24.5474 8.27233 24.3524 8.49333 24.2051 8.788C24.0578 9.074 23.9538 9.42933 23.8931 9.854V13H22.0211ZM27.6705 13V3.692H29.5035V8.866C29.7808 8.684 30.0408 8.489 30.2835 8.281C30.5262 8.06433 30.7472 7.839 30.9465 7.605C31.1545 7.371 31.3408 7.13267 31.5055 6.89C31.6702 6.64733 31.8088 6.409 31.9215 6.175H34.0535C33.9322 6.50433 33.7632 6.838 33.5465 7.176C33.3385 7.50533 33.0872 7.813 32.7925 8.099C32.4978 8.37633 32.1598 8.61467 31.7785 8.814C31.3972 9.01333 30.9768 9.14767 30.5175 9.217V9.438C31.0982 9.334 31.5792 9.34267 31.9605 9.464C32.3418 9.58533 32.6538 9.78033 32.8965 10.049C33.1478 10.309 33.3472 10.6123 33.4945 10.959C33.6505 11.297 33.7848 11.6393 33.8975 11.986L34.2095 13H32.1685L31.9995 12.376C31.8782 11.9427 31.7395 11.5657 31.5835 11.245C31.4362 10.9243 31.2412 10.6773 30.9985 10.504C30.7645 10.322 30.4395 10.231 30.0235 10.231H29.5035V13H27.6705ZM37.9001 15.366C37.5447 15.366 37.1851 15.3313 36.8211 15.262C36.4657 15.2013 36.1277 15.1017 35.8071 14.963C35.4951 14.833 35.2307 14.664 35.0141 14.456L35.5341 12.857C35.8114 13.143 36.1581 13.3597 36.5741 13.507C36.9901 13.6543 37.4017 13.728 37.8091 13.728C38.2771 13.728 38.6627 13.6327 38.9661 13.442C39.2694 13.2513 39.5034 12.9653 39.6681 12.584C39.8327 12.194 39.9237 11.7087 39.9411 11.128L40.0321 9.945H39.7331C39.6551 10.5257 39.5164 10.998 39.3171 11.362C39.1177 11.7173 38.8664 11.9817 38.5631 12.155C38.2684 12.3197 37.9217 12.402 37.5231 12.402C37.0204 12.402 36.6001 12.2763 36.2621 12.025C35.9241 11.7737 35.6684 11.3967 35.4951 10.894C35.3304 10.3913 35.2481 9.77167 35.2481 9.035V6.175H37.1201V8.58C37.1201 9.386 37.2111 9.96667 37.3931 10.322C37.5751 10.6773 37.8567 10.855 38.2381 10.855C38.4374 10.855 38.6151 10.803 38.7711 10.699C38.9357 10.5863 39.0744 10.426 39.1871 10.218C39.3084 10.01 39.3994 9.75867 39.4601 9.464C39.5294 9.16067 39.5684 8.81833 39.5771 8.437V6.175H41.4361V11.206C41.4361 11.752 41.3884 12.246 41.2931 12.688C41.1977 13.13 41.0547 13.5157 40.8641 13.845C40.6821 14.183 40.4481 14.4647 40.1621 14.69C39.8761 14.9153 39.5467 15.0843 39.1741 15.197C38.8014 15.3097 38.3767 15.366 37.9001 15.366Z" />
</svg>
