<svg width="39" height="17" viewBox="0 0 39 17" fill="currentColor" xmlns="http://www.w3.org/2000/svg">
<path d="M0.806641 13V3.77002H3.78364C4.78031 3.77002 5.55597 4.02135 6.11064 4.52402C6.67397 5.01802 6.95564 5.68969 6.95564 6.53902C6.95564 6.99835 6.86031 7.39702 6.66964 7.73502C6.47897 8.07302 6.21897 8.33735 5.88964 8.52802C5.56031 8.71869 5.20064 8.83135 4.81064 8.86602L4.75864 8.69702C5.44331 8.70569 5.95464 8.84869 6.29264 9.12602C6.63064 9.39469 6.82564 9.82802 6.87764 10.426L7.09864 13H5.22664L5.07064 10.92C5.04464 10.5733 4.98397 10.309 4.88864 10.127C4.79331 9.94502 4.64597 9.81935 4.44664 9.75002C4.24731 9.68069 3.98297 9.64602 3.65364 9.64602H2.65264V13H0.806641ZM2.65264 7.98202H3.71864C4.15197 7.98202 4.48131 7.86935 4.70664 7.64402C4.94064 7.41869 5.05764 7.10669 5.05764 6.70802C5.05764 6.30069 4.94064 5.98869 4.70664 5.77202C4.48131 5.54669 4.15197 5.43402 3.71864 5.43402H2.65264V7.98202ZM11.7475 13.156C11.0975 13.156 10.5212 13.0087 10.0185 12.714C9.52456 12.4107 9.13456 11.986 8.84856 11.44C8.57123 10.894 8.43256 10.2527 8.43256 9.51602C8.43256 8.79669 8.57123 8.16402 8.84856 7.61802C9.1259 7.07202 9.51156 6.64735 10.0055 6.34402C10.4995 6.03202 11.0715 5.87602 11.7215 5.87602C12.3629 5.87602 12.9262 6.02769 13.4115 6.33102C13.9055 6.63435 14.2912 7.06335 14.5685 7.61802C14.8459 8.16402 14.9845 8.80969 14.9845 9.55502V9.99702H10.2525C10.2959 10.517 10.4519 10.9157 10.7205 11.193C10.9979 11.4617 11.3532 11.596 11.7865 11.596C12.1072 11.596 12.3802 11.5223 12.6055 11.375C12.8309 11.219 12.9869 11.011 13.0735 10.751L14.8415 10.868C14.6075 11.596 14.2262 12.1593 13.6975 12.558C13.1775 12.9567 12.5275 13.156 11.7475 13.156ZM10.2785 8.78802H13.0995C13.0562 8.33735 12.9089 7.99935 12.6575 7.77402C12.4062 7.54869 12.0899 7.43602 11.7085 7.43602C11.3099 7.43602 10.9849 7.55302 10.7335 7.78702C10.4909 8.01235 10.3392 8.34602 10.2785 8.78802ZM20.4394 13C19.6594 13 19.0831 12.8223 18.7104 12.467C18.3464 12.1117 18.1644 11.5613 18.1644 10.816V4.39402H19.9324V10.647C19.9324 10.9677 20.0061 11.206 20.1534 11.362C20.3094 11.518 20.5478 11.596 20.8684 11.596H22.5064V13H20.4394ZM16.1624 7.43602V6.03202H22.5064V7.43602H16.1624ZM25.9854 13V6.03202H27.2854L27.4284 7.85202H27.3114C27.3807 7.24535 27.554 6.79035 27.8314 6.48702C28.1174 6.18369 28.5334 6.03202 29.0794 6.03202H30.6394V7.47502H29.2094C28.88 7.47502 28.607 7.53135 28.3904 7.64402C28.1737 7.75669 28.0134 7.92569 27.9094 8.15102C27.8054 8.37635 27.7534 8.65802 27.7534 8.99602V13H25.9854ZM24.3214 13V11.596H29.8724V13H24.3214ZM24.3214 7.43602V6.03202H27.0384V7.43602H24.3214ZM35.0803 13.156C34.4216 13.156 33.8453 13.0087 33.3513 12.714C32.8573 12.4107 32.4716 11.986 32.1943 11.44C31.917 10.894 31.7783 10.2527 31.7783 9.51602C31.7783 8.77069 31.917 8.12935 32.1943 7.59202C32.4716 7.04602 32.8573 6.62569 33.3513 6.33102C33.8453 6.02769 34.4216 5.87602 35.0803 5.87602C35.739 5.87602 36.3153 6.02769 36.8093 6.33102C37.3033 6.62569 37.689 7.04602 37.9663 7.59202C38.2436 8.12935 38.3823 8.77069 38.3823 9.51602C38.3823 10.2527 38.2436 10.894 37.9663 11.44C37.689 11.986 37.3033 12.4107 36.8093 12.714C36.3153 13.0087 35.739 13.156 35.0803 13.156ZM35.0803 11.596C35.5483 11.596 35.908 11.4183 36.1593 11.063C36.4193 10.699 36.5493 10.1833 36.5493 9.51602C36.5493 8.84002 36.4193 8.32435 36.1593 7.96902C35.908 7.61369 35.5483 7.43602 35.0803 7.43602C34.6123 7.43602 34.2483 7.61369 33.9883 7.96902C33.737 8.32435 33.6113 8.84002 33.6113 9.51602C33.6113 10.1833 33.737 10.699 33.9883 11.063C34.2483 11.4183 34.6123 11.596 35.0803 11.596Z" />
</svg>
