<svg width="42" height="17" viewBox="0 0 42 17" fill="currentColor" xmlns="http://www.w3.org/2000/svg">
<path d="M9.81573 3.91299L13.2347 3.84799V4.78399L12.0517 5.12199L12.4807 4.64099L10.1277 13.013H8.37273L6.42273 6.09699H6.76073L4.73273 13.013H2.99073L0.832734 4.79699L1.01473 5.09599L0.0527344 4.84899V3.91299L3.64073 3.84799V4.78399L2.50973 5.14798L2.73073 4.79699L4.19973 11.336L3.82273 11.323L5.86373 3.89999L7.57973 3.84799L9.55573 11.297L9.17873 11.31L10.8427 4.79699L10.9987 5.13499L9.81573 4.84899V3.91299ZM13.2 13V12.064L14.253 11.765L14.071 12.038V7.04599L14.279 7.35799L13.2 7.03299V6.09699L15.488 5.99299L15.722 7.22799L15.488 7.17599C15.878 6.76866 16.2636 6.45665 16.645 6.23998C17.0263 6.01465 17.4336 5.90199 17.867 5.90199C18.1443 5.90199 18.439 5.94532 18.751 6.03199L18.634 8.39798H17.568L17.386 7.03299L17.555 7.38399C17.503 7.36666 17.4466 7.35366 17.386 7.34499C17.334 7.33632 17.282 7.33198 17.23 7.33198C16.9613 7.33198 16.6926 7.41432 16.424 7.57899C16.164 7.74366 15.9386 7.95599 15.748 8.21599L15.891 7.72199V12.038L15.683 11.765L16.97 12.064V13H13.2ZM21.9212 11.934L21.7912 11.778L22.7922 12.064V13H19.2302V12.064L20.2312 11.778L20.1012 11.934V7.18899L20.2182 7.30599L19.2302 7.03299V6.09699L21.9212 6.00599V11.934ZM20.9592 4.99199C20.6386 4.99199 20.3786 4.90099 20.1792 4.71899C19.9886 4.53699 19.8932 4.27699 19.8932 3.93899C19.8932 3.57499 19.9929 3.30632 20.1922 3.13299C20.4002 2.95099 20.6602 2.85999 20.9722 2.85999C21.2756 2.85999 21.5269 2.95099 21.7262 3.13299C21.9256 3.30632 22.0252 3.57066 22.0252 3.92599C22.0252 4.28132 21.9212 4.54999 21.7132 4.73199C21.5139 4.90532 21.2626 4.99199 20.9592 4.99199ZM25.9039 13.156C25.3059 13.156 24.8509 12.9783 24.5389 12.623C24.2356 12.259 24.0839 11.7217 24.0839 11.011V7.03299L24.3179 7.26699H23.0699V6.29199L24.3439 5.99299L24.0839 6.30499V4.53699L25.9169 4.21199V6.30499L25.7219 6.05799H27.6979L27.6719 7.26699H25.7219L25.9169 7.03299V10.764C25.9169 11.1367 25.9776 11.4053 26.0989 11.57C26.2202 11.7347 26.4022 11.817 26.6449 11.817C26.7836 11.817 26.9352 11.7953 27.0999 11.752C27.2732 11.7 27.4596 11.635 27.6589 11.557L27.9969 12.558C27.2689 12.9567 26.5712 13.156 25.9039 13.156ZM31.48 13.156C30.8473 13.156 30.2927 13.026 29.816 12.766C29.3393 12.4973 28.9667 12.103 28.698 11.583C28.438 11.0543 28.308 10.413 28.308 9.65899C28.308 8.87899 28.4467 8.21166 28.724 7.65699C29.01 7.09366 29.4087 6.66032 29.92 6.35699C30.4313 6.05366 31.0337 5.90199 31.727 5.90199C32.403 5.90199 32.9533 6.03632 33.378 6.30499C33.8027 6.57366 34.1147 6.94199 34.314 7.40999C34.5133 7.86932 34.613 8.38932 34.613 8.96999C34.613 9.11732 34.6043 9.26465 34.587 9.41198C34.5783 9.55931 34.561 9.71532 34.535 9.87999H29.777V8.80099H32.975L32.741 8.96999C32.7497 8.62332 32.715 8.31999 32.637 8.05999C32.5677 7.79132 32.4463 7.58332 32.273 7.43599C32.1083 7.28866 31.8787 7.21499 31.584 7.21499C31.246 7.21499 30.973 7.31466 30.765 7.51399C30.557 7.70466 30.4053 7.96466 30.31 8.29399C30.2233 8.62332 30.18 8.99166 30.18 9.39899C30.18 9.85832 30.2363 10.27 30.349 10.634C30.4617 10.998 30.6437 11.284 30.895 11.492C31.155 11.7 31.493 11.804 31.909 11.804C32.2037 11.804 32.52 11.752 32.858 11.648C33.2047 11.5353 33.5643 11.3707 33.937 11.154L34.548 12.129C34.0453 12.4757 33.5297 12.7357 33.001 12.909C32.481 13.0737 31.974 13.156 31.48 13.156ZM35.4168 13V12.064L36.4698 11.765L36.2878 12.038V7.04599L36.4958 7.35799L35.4168 7.03299V6.09699L37.7048 5.99299L37.9388 7.22799L37.7048 7.17599C38.0948 6.76866 38.4804 6.45665 38.8618 6.23998C39.2431 6.01465 39.6504 5.90199 40.0838 5.90199C40.3611 5.90199 40.6558 5.94532 40.9678 6.03199L40.8508 8.39798H39.7848L39.6028 7.03299L39.7718 7.38399C39.7198 7.36666 39.6634 7.35366 39.6028 7.34499C39.5508 7.33632 39.4988 7.33198 39.4468 7.33198C39.1781 7.33198 38.9094 7.41432 38.6408 7.57899C38.3808 7.74366 38.1554 7.95599 37.9648 8.21599L38.1078 7.72199V12.038L37.8998 11.765L39.1868 12.064V13H35.4168Z" />
</svg>
